HIERARCHY
ROOT Hips
{
	OFFSET 0.000000 0.000000 0.000000 
	CHANNELS 6 Xposition Yposition Zposition Zrotation Yrotation Xrotation
	JOINT LeftUpLeg
	{
		OFFSET 1.363060 -1.794630 0.839290 
		CHANNELS 3 Zrotation Yrotation Xrotation
		JOINT LeftLeg
		{
			OFFSET 2.448110 -6.726130 0.000000 
			CHANNELS 3 Zrotation Yrotation Xrotation
			JOINT LeftFoot
			{
				OFFSET 2.562200 -7.039590 0.000000 
				CHANNELS 3 Zrotation Yrotation Xrotation
				JOINT LeftToeBase
				{
					OFFSET 0.157640 -0.433110 2.322550 
					CHANNELS 3 Zrotation Yrotation Xrotation
					End Site
					{
						OFFSET 0.000000 0.000000 0.000000 
					}
				}
			}
		}
	}
	JOINT RightUpLeg
	{
		OFFSET -1.305520 -1.794630 0.839290 
		CHANNELS 3 Zrotation Yrotation Xrotation
		JOINT RightLeg
		{
			OFFSET -2.542530 -6.985550 0.000000 
			CHANNELS 3 Zrotation Yrotation Xrotation
			JOINT RightFoot
			{
				OFFSET -2.568260 -7.056230 0.000000 
				CHANNELS 3 Zrotation Yrotation Xrotation
				JOINT RightToeBase
				{
					OFFSET -0.164730 -0.452590 2.363150 
					CHANNELS 3 Zrotation Yrotation Xrotation
					End Site
					{
						OFFSET 0.000000 0.000000 0.000000 
					}
				}
			}
		}
	}
	JOINT Spine
	{
		OFFSET 0.028270 2.035590 -0.193380 
		CHANNELS 3 Zrotation Yrotation Xrotation
		JOINT Spine1
		{
			OFFSET 0.056720 2.048850 -0.042750 
			CHANNELS 3 Zrotation Yrotation Xrotation
			JOINT Neck1
			{
				OFFSET -0.054170 1.746240 0.172020 
				CHANNELS 3 Zrotation Yrotation Xrotation
				JOINT Head
				{
					OFFSET 0.104070 1.761360 -0.123970 
					CHANNELS 3 Zrotation Yrotation Xrotation
					End Site
					{
						OFFSET 0.000000 0.000000 0.000000 
					}
				}
			}
			JOINT LeftArm
			{
				OFFSET 3.362410 1.200890 -0.311210 
				CHANNELS 3 Zrotation Yrotation Xrotation
				JOINT LeftForeArm
				{
					OFFSET 4.983000 -0.000000 -0.000000 
					CHANNELS 3 Zrotation Yrotation Xrotation
					JOINT LeftHand
					{
						OFFSET 3.483560 -0.000000 -0.000000 
						CHANNELS 3 Zrotation Yrotation Xrotation
						JOINT LeftHandIndex1
						{
							OFFSET 0.715260 -0.000000 -0.000000 
							CHANNELS 3 Zrotation Yrotation Xrotation
							End Site
							{
								OFFSET 0.000000 0.000000 0.000000 
							}
						}
					}
				}
			}
			JOINT RightArm
			{
				OFFSET -3.136600 1.374050 -0.404650 
				CHANNELS 3 Zrotation Yrotation Xrotation
				JOINT RightForeArm
				{
					OFFSET -5.241900 -0.000000 -0.000000 
					CHANNELS 3 Zrotation Yrotation Xrotation
					JOINT RightHand
					{
						OFFSET -3.444170 -0.000000 -0.000000 
						CHANNELS 3 Zrotation Yrotation Xrotation
						JOINT RightHandIndex1
						{
							OFFSET -0.622530 -0.000000 -0.000000 
							CHANNELS 3 Zrotation Yrotation Xrotation
							End Site
							{
								OFFSET 0.000000 0.000000 0.000000 
							}
						}
					}
				}
			}
		}
	}
}
MOTION
Frames: 16
Frame Time: 0.008333
19.282200 2.883200 4.636700 171.317993 84.012802 146.214005 -15.727900 -7.608400 -99.968201 14.607600 19.288099 74.051903 2.567300 17.120199 29.533800 4.456900 12.744700 38.420300 10.202100 2.673200 -107.396301 -21.826200 -19.919800 95.346397 -0.105300 8.543300 14.015500 -0.080100 -1.826200 5.025500 2.301700 0.208800 12.426200 5.394600 0.797300 -6.502700 -5.741900 5.806600 -8.114200 -3.069100 2.851300 -0.169200 -35.131302 -71.877296 60.765701 31.001301 -41.736401 -12.070700 -0.000000 0.000000 -21.514601 -7.125000 0.000000 -0.000000 11.725800 70.431000 54.231098 -39.572201 47.814400 -18.121599 0.000000 0.000000 11.557900 7.125000 -0.000000 -0.000000 
19.282200 2.883200 4.636700 171.317993 84.012802 146.214005 -15.727900 -7.608400 -99.968201 14.607600 19.288099 74.051903 2.567300 17.120199 29.533800 4.456900 12.744700 38.420300 10.202100 2.673200 -107.396301 -21.826200 -19.919800 95.346397 -0.105300 8.543300 14.015500 -0.080100 -1.826200 5.025500 2.301700 0.208800 12.426200 5.394600 0.797300 -6.502700 -5.741900 5.806600 -8.114200 -3.069100 2.851300 -0.169200 -35.131302 -71.877296 60.765701 31.001301 -41.736401 -12.070700 -0.000000 0.000000 -21.514601 -7.125000 0.000000 -0.000000 11.725800 70.431000 54.231098 -39.572201 47.814400 -18.121599 0.000000 0.000000 11.557900 7.125000 -0.000000 -0.000000 
19.282400 2.884400 4.637200 171.358002 83.995903 146.255005 -15.703200 -7.640600 -99.952301 14.606300 19.287701 74.047798 2.568200 17.117800 29.537901 4.460300 12.749000 38.436100 10.198300 2.649700 -107.409302 -21.829700 -19.919500 95.356598 -0.105500 8.572300 14.053200 -0.077300 -1.793000 4.933800 2.316800 0.202700 12.604200 5.451900 0.787900 -6.244100 -5.754900 5.852100 -8.172600 -3.067200 2.875300 -0.165400 -34.511700 -71.965401 60.066898 30.994400 -41.730701 -12.066100 -0.000000 0.000000 -21.494600 -7.125000 0.000000 -0.000000 11.022500 70.521896 53.525299 -39.579300 47.818600 -18.126801 0.000000 0.000000 11.522500 7.125000 -0.000000 -0.000000 
19.282700 2.884400 4.637100 170.544998 83.982498 145.483994 -15.751100 -7.640800 -99.984001 14.604200 19.287201 74.041603 2.563300 17.136600 29.515301 4.462000 12.751000 38.443401 10.100700 2.684600 -107.458397 -21.828100 -19.919701 95.351700 -0.104900 8.610700 14.091600 -0.075400 -1.771300 4.874100 2.310200 0.216000 12.693000 5.499800 0.788400 -6.103500 -5.773100 5.855100 -8.217900 -3.069600 2.877900 -0.172100 -34.206100 -72.041702 59.707001 30.973200 -41.713100 -12.052000 -0.000000 0.000000 -21.485100 -7.125000 0.000000 -0.000000 10.697300 70.546402 53.156101 -39.570801 47.813599 -18.120600 0.000000 0.000000 11.509600 7.125000 -0.000000 -0.000000 
19.282801 2.884200 4.636900 170.132004 83.983803 145.091995 -15.758100 -7.640100 -99.999802 14.603800 19.287001 74.040298 2.558000 17.169701 29.493299 4.479000 12.771900 38.520599 10.057000 2.709700 -107.478500 -21.825800 -19.919901 95.345001 -0.103200 8.631200 14.089500 -0.075400 -1.771600 4.874800 2.306900 0.227200 12.721200 5.517500 0.791500 -6.058300 -5.778600 5.852600 -8.213900 -3.066200 2.877200 -0.165000 -34.130798 -72.083000 59.574402 30.952200 -41.695702 -12.038000 -0.000000 0.000000 -21.479099 -7.125000 0.000000 -0.000000 10.654100 70.544403 53.033401 -39.548698 47.800201 -18.104200 0.000000 0.000000 11.508200 7.125000 -0.000000 -0.000000 
19.282499 2.884200 4.637000 169.908005 84.018402 144.878006 -15.724100 -7.616100 -100.015099 14.604700 19.287300 74.042999 2.552400 17.209600 29.471300 4.499600 12.797100 38.613499 10.061900 2.756000 -107.477699 -21.820000 -19.920401 95.328102 -0.102600 8.639800 14.090500 -0.075100 -1.768000 4.864800 2.309700 0.248400 12.738800 5.526100 0.800000 -6.033400 -5.762400 5.856100 -8.181900 -3.052400 2.879600 -0.147500 -34.085899 -72.110001 59.476700 30.936600 -41.682800 -12.027600 -0.000000 0.000000 -21.475300 -7.125000 0.000000 -0.000000 10.662900 70.542900 52.964001 -39.523300 47.784901 -18.085400 0.000000 0.000000 11.515400 7.125000 -0.000000 -0.000000 
19.282000 2.884400 4.637200 170.138000 84.085403 145.106003 -15.629900 -7.582300 -100.028801 14.605800 19.287600 74.046204 2.549300 17.250799 29.462601 4.517800 12.819200 38.695499 10.138500 2.811700 -107.457603 -21.812000 -19.921101 95.304703 -0.103300 8.629000 14.088700 -0.074300 -1.759000 4.840100 2.322500 0.274400 12.736000 5.516200 0.812300 -6.043500 -5.717500 5.861500 -8.113900 -3.024700 2.883000 -0.118500 -34.098400 -72.117302 59.451401 30.929100 -41.676601 -12.022700 -0.000000 0.000000 -21.477301 -7.125000 0.000000 -0.000000 10.760100 70.535103 52.983898 -39.493801 47.767101 -18.063601 0.000000 0.000000 11.536700 7.125000 -0.000000 -0.000000 
19.281300 2.884800 4.637400 170.567001 84.145897 145.541000 -15.532300 -7.562500 -100.048401 14.604000 19.287100 74.040901 2.551000 17.275299 29.476000 4.525400 12.828500 38.729900 10.233000 2.855100 -107.449699 -21.803600 -19.921801 95.280098 -0.105100 8.612000 14.097100 -0.072500 -1.736800 4.778900 2.336200 0.290800 12.724000 5.500000 0.820500 -6.063900 -5.649500 5.867600 -8.034300 -2.986400 2.887100 -0.087000 -34.102100 -72.114799 59.441799 30.929701 -41.676998 -12.023000 -0.000000 0.000000 -21.486401 -7.125000 0.000000 -0.000000 10.866300 70.525902 53.024799 -39.467999 47.751499 -18.044399 0.000000 0.000000 11.570400 7.125000 -0.000000 -0.000000 
19.280600 2.885500 4.636700 170.800995 84.148201 145.813995 -15.504800 -7.589200 -100.079597 14.597100 19.285200 74.020103 2.555900 17.281200 29.503000 4.523200 12.825900 38.720200 10.269700 2.856100 -107.491402 -21.797701 -19.922300 95.262802 -0.107100 8.605500 14.119400 -0.069900 -1.705400 4.692100 2.336100 0.279500 12.703300 5.487700 0.815300 -6.084200 -5.581000 5.865800 -7.981300 -2.950100 2.887400 -0.068500 -34.086399 -72.110199 59.438400 30.934900 -41.681301 -12.026500 -0.000000 0.000000 -21.502100 -7.125000 0.000000 -0.000000 10.951900 70.514702 53.056198 -39.450298 47.740799 -18.031300 0.000000 0.000000 11.607100 7.125000 -0.000000 -0.000000 
19.280001 2.886300 4.635200 170.850006 84.086899 145.925003 -15.547500 -7.665600 -100.113998 14.586100 19.282301 73.986900 2.561900 17.278799 29.534800 4.518600 12.820300 38.699402 10.242600 2.807400 -107.575104 -21.796101 -19.922501 95.258003 -0.108100 8.610400 14.141300 -0.067600 -1.678000 4.616600 2.322900 0.240400 12.679000 5.479300 0.797000 -6.099700 -5.539900 5.848300 -7.983400 -2.930100 2.879800 -0.074000 -34.068501 -72.109100 59.441502 30.940100 -41.685699 -12.030000 -0.000000 0.000000 -21.517700 -7.125000 0.000000 -0.000000 11.016100 70.499603 53.063000 -39.437000 47.732800 -18.021500 0.000000 0.000000 11.640400 7.125000 -0.000000 -0.000000 
19.279699 2.886900 4.633900 170.921005 84.007500 146.048004 -15.605900 -7.752700 -100.133301 14.575100 19.279301 73.953300 2.568200 17.271700 29.566601 4.516400 12.817600 38.689400 10.200100 2.737600 -107.652603 -21.798000 -19.922300 95.263496 -0.107900 8.619600 14.149600 -0.066000 -1.657000 4.558600 2.308500 0.195600 12.663900 5.472300 0.776200 -6.104600 -5.541900 5.816400 -8.039700 -2.933500 2.864400 -0.100900 -34.054798 -72.114601 59.437801 30.941700 -41.687000 -12.031000 -0.000000 0.000000 -21.526600 -7.125000 0.000000 -0.000000 11.055100 70.483704 53.032700 -39.423100 47.724400 -18.011200 0.000000 0.000000 11.668400 7.125000 -0.000000 -0.000000 
19.279699 2.887000 4.633400 171.255997 83.962799 146.397995 -15.616300 -7.809800 -100.131897 14.567800 19.277300 73.931198 2.575200 17.250900 29.599600 4.511300 12.811300 38.666199 10.201400 2.682400 -107.683296 -21.801201 -19.922001 95.273102 -0.107100 8.626000 14.144900 -0.064200 -1.634900 4.497700 2.304900 0.167300 12.662800 5.459800 0.763900 -6.101900 -5.585100 5.774500 -8.128400 -2.958700 2.843300 -0.141100 -34.050999 -72.123199 59.433498 30.940901 -41.686298 -12.030500 -0.000000 0.000000 -21.532301 -7.125000 0.000000 -0.000000 11.076100 70.469398 52.981899 -39.408798 47.715698 -18.000601 0.000000 0.000000 11.682800 7.125000 -0.000000 -0.000000 
19.280199 2.886600 4.633800 172.003006 83.984596 147.117004 -15.541900 -7.815900 -100.118401 14.566000 19.276800 73.925697 2.584700 17.205799 29.641500 4.493600 12.789800 38.586498 10.283400 2.665300 -107.657303 -21.803900 -19.921801 95.280800 -0.106500 8.625100 14.134300 -0.062000 -1.607000 4.420800 2.317300 0.167000 12.663700 5.433800 0.765800 -6.111200 -5.645200 5.728000 -8.217000 -2.993100 2.819400 -0.184800 -34.081299 -72.125603 59.472000 30.941999 -41.687302 -12.031300 -0.000000 0.000000 -21.548401 -7.125000 0.000000 -0.000000 11.117300 70.452301 52.966999 -39.400799 47.710800 -17.994699 0.000000 0.000000 11.677900 7.125000 -0.000000 -0.000000 
19.281099 2.886200 4.634900 172.832001 84.052399 147.901001 -15.430000 -7.778500 -100.106201 14.568700 19.277500 73.933998 2.596300 17.139000 29.691000 4.463900 12.753400 38.452099 10.406400 2.683200 -107.602203 -21.804899 -19.921700 95.283798 -0.106100 8.625600 14.129500 -0.059300 -1.571700 4.323300 2.335900 0.188200 12.651300 5.401000 0.778400 -6.146800 -5.687300 5.685100 -8.276700 -3.018200 2.797600 -0.221300 -34.152199 -72.117599 59.579899 30.948799 -41.692902 -12.035700 -0.000000 0.000000 -21.590900 -7.125000 0.000000 -0.000000 11.197100 70.429298 53.019001 -39.407398 47.714901 -17.999599 0.000000 0.000000 11.654800 7.125000 -0.000000 -0.000000 
19.282000 2.886000 4.635500 173.182999 84.116798 148.220001 -15.366300 -7.726100 -100.103897 14.573500 19.278799 73.948502 2.605500 17.074301 29.727699 4.434600 12.717300 38.319302 10.494300 2.712900 -107.563904 -21.803699 -19.921801 95.280296 -0.105900 8.638000 14.140800 -0.056500 -1.534000 4.219600 2.343600 0.212000 12.624400 5.378000 0.791600 -6.198800 -5.694400 5.652200 -8.310000 -3.024100 2.781300 -0.249300 -34.220100 -72.104401 59.719101 30.962500 -41.704201 -12.044900 -0.000000 0.000000 -21.668501 -7.125000 0.000000 -0.000000 11.288800 70.406998 53.104599 -39.426300 47.726299 -18.013599 0.000000 0.000000 11.613200 7.125000 -0.000000 -0.000000 
19.282301 2.886200 4.635500 173.110992 84.164101 148.136002 -15.347700 -7.677700 -100.109802 14.578900 19.280300 73.964798 2.608300 17.043301 29.736900 4.418600 12.697500 38.246300 10.550800 2.742700 -107.550697 -21.799700 -19.922199 95.268402 -0.106100 8.651300 14.160800 -0.054300 -1.504200 4.137400 2.342000 0.230200 12.600800 5.369800 0.801000 -6.240100 -5.682800 5.628900 -8.346100 -3.018400 2.770700 -0.276100 -34.208000 -72.099403 59.805599 30.980400 -41.719101 -12.056800 -0.000000 0.000000 -21.780300 -7.125000 0.000000 -0.000000 11.339800 70.396797 53.151901 -39.445099 47.737701 -18.027500 0.000000 0.000000 11.549900 7.125000 -0.000000 -0.000000 
